#!OML:ASF F:\twosubjects\two\Thursday\Session 1\Rory.ASF
:FULLY-SPECIFIED
:DEGREES
729
root 9.62098 17.0359 10.4275 -153.835 -16.8527 173.763
lowerback 28.1918 3.23646 3.05867
upperback 9.66203 3.08592 9.10874
thorax -5.02232 0.397892 7.53146
lowerneck -3.12866 -3.76568 -11.4696
upperneck -16.7587 -4.943 9.82296
head -3.92549 -2.75445 5.09836
rclavicle 3.18055e-015 1.59028e-014
rhumerus 30.5177 25.8298 -56.7363
rradius 126.82
rwrist -51.6235
rhand -40.2015 15.3729
rfingers 7.12502
rthumb -13.162 -14.1916
lclavicle 3.18055e-015 1.59028e-014
lhumerus -6.82423 -35.5386 104.014
lradius 68.8089
lwrist -13.7376
lhand -36.5012 47.2438
lfingers 7.12502
lthumb -9.59338 -1362.99
rfemur -36.0268 16.988 -24.6812
rtibia 27.3832
rfoot -18.1329 -14.5902
rtoes -18.6536
lfemur -48.6489 12.8354 -9.98403
ltibia 37.3403
lfoot -3.98514 4.89902
ltoes -9.32769
730
root 9.77278 17.0414 10.3683 -153.345 -17.3815 173.37
lowerback 27.1739 3.25449 3.44895
upperback 9.60464 3.26061 8.57626
thorax -4.56793 0.557058 6.61351
lowerneck -3.58632 -3.92193 -9.97844
upperneck -16.54 -5.11049 9.64068
head -3.80603 -2.89861 4.77173
rclavicle 1.59028e-014 -1.27222e-014
rhumerus 29.5281 25.0261 -58.0278
rradius 126.294
rwrist -51.2491
rhand -40.266 15.5487
rfingers 7.12502
rthumb -13.2242 -14.0118
lclavicle 1.59028e-014 -1.27222e-014
lhumerus -6.51626 -36.6279 102.61
lradius 68.0593
lwrist -14.1984
lhand -36.5831 46.6135
lfingers 7.12502
lthumb -9.6724 -1363.63
rfemur -36.9659 17.4924 -25.2744
rtibia 27.0981
rfoot -18.6352 -14.3809
rtoes -14.4949
lfemur -48.2543 12.2406 -9.56393
ltibia 35.818
lfoot -3.14428 5.15925
ltoes -9.40706
731
root 9.9567 17.0625 10.2904 -153.508 -17.4189 173.245
lowerback 26.959 3.66476 3.42752
upperback 9.70001 3.81109 8.06318
thorax -4.38149 0.864016 5.86586
lowerneck -4.49476 -4.09412 -8.43
upperneck -15.9666 -5.3063 9.34815
head -3.51543 -3.04104 4.37822
rclavicle -7.95139e-014 -2.06736e-014
rhumerus 28.6362 24.1534 -59.0602
rradius 126.017
rwrist -51.0225
rhand -40.6089 15.8116
rfingers 7.12502
rthumb -13.5547 -13.7272
lclavicle -7.95139e-014 -2.06736e-014
lhumerus -6.00257 -37.7048 101.143
lradius 67.0547
lwrist -14.374
lhand -36.7103 46.4132
lfingers 7.12502
lthumb -9.79515 -1363.83
rfemur -38.028 18.725 -25.616
rtibia 27.5999
rfoot -18.4815 -14.0566
rtoes -13.095
lfemur -46.9459 12.0164 -8.78283
ltibia 34.2005
lfoot -2.34216 5.44506
ltoes -9.05975
732
root 10.1423 17.0667 10.2227 -153.568 -17.7812 172.957
lowerback 26.9427 3.69927 3.35835
upperback 9.55999 3.91204 7.85114
thorax -4.53191 0.944786 5.63311
lowerneck -4.86121 -4.17906 -8.15913
upperneck -15.6014 -5.39691 9.3146
head -3.34632 -3.08131 4.30019
rclavicle 3.18055e-014 -2.54444e-014
rhumerus 28.2948 24.118 -59.5009
rradius 125.877
rwrist -51.1545
rhand -41.0661 15.8184
rfingers 7.12502
rthumb -13.9953 -13.6904
lclavicle 3.18055e-014 -2.54444e-014
lhumerus -5.97459 -37.5663 100.334
lradius 66.1703
lwrist -14.5946
lhand -36.9734 45.7147
lfingers 7.12502
lthumb -10.049 -1364.55
rfemur -38.5168 18.3382 -24.9384
rtibia 28.8537
rfoot -17.008 -14.7312
rtoes -22.9196
lfemur -45.8993 11.4125 -7.99308
ltibia 32.5568
lfoot -1.09916 5.7888
ltoes -9.22181
733
root 10.3331 17.0636 10.1729 -153.665 -18.4527 172.422
lowerback 27.1833 3.60654 3.36269
upperback 9.43962 3.86165 7.67615
thorax -4.76707 0.942209 5.44624
lowerneck -5.34425 -4.37269 -8.20633
upperneck -15.1743 -5.58597 9.65441
head -3.10743 -3.16634 4.38373
rclavicle 1.04958e-013 6.99722e-014
rhumerus 27.9541 24.16 -60.037
rradius 125.498
rwrist -51.0222
rhand -41.3526 15.9399
rfingers 7.12502
rthumb -14.2714 -13.5497
lclavicle 1.04958e-013 6.99722e-014
lhumerus -6.03326 -37.5088 99.4161
lradius 65.6907
lwrist -14.7934
lhand -37.3179 45.031
lfingers 7.12502
lthumb -10.3814 -1365.25
rfemur -38.4018 17.1257 -23.7948
rtibia 30.6592
rfoot -16.5822 -15.6139
rtoes -26.7233
lfemur -44.8177 10.1067 -7.09448
ltibia 30.7822
lfoot 0.348514 6.33192
ltoes -10.0163
734
root 10.5211 17.0654 10.1196 -153.82 -19.1638 171.799
lowerback 27.2919 3.41498 3.28424
upperback 9.50464 3.59657 7.4726
thorax -4.71918 0.821168 5.34316
lowerneck -5.68286 -4.33457 -8.37502
upperneck -15.0892 -5.4751 10.1177
head -3.01253 -3.11845 4.54376
rclavicle -3.49861e-014 2.70347e-014
rhumerus 27.7136 24.277 -60.5982
rradius 124.914
rwrist -50.8874
rhand -41.4693 16.3706
rfingers 7.12502
rthumb -14.3839 -13.111
lclavicle -3.49861e-014 2.70347e-014
lhumerus -5.53392 -37.2623 98.1503
lradius 65.0013
lwrist -15.0045
lhand -37.4437 45.8185
lfingers 7.12502
lthumb -10.5027 -1364.46
rfemur -38.3511 16.0538 -22.8151
rtibia 32.8075
rfoot -17.6864 -15.1535
rtoes -23.5067
lfemur -43.5219 8.3517 -6.07413
ltibia 28.8814
lfoot 1.78193 7.04193
ltoes -13.158
735
root 10.7054 17.0681 10.0528 -153.823 -19.705 171.368
lowerback 27.1239 3.20902 3.25949
upperback 9.45726 3.35522 7.15972
thorax -4.65811 0.732114 5.07829
lowerneck -5.24737 -4.22753 -8.16811
upperneck -15.7233 -5.34837 10.314
head -3.28092 -3.1039 4.60457
rclavicle 1.49486e-013 4.92986e-014
rhumerus 27.547 24.5251 -61.2875
rradius 124.324
rwrist -50.8975
rhand -41.732 16.7526
rfingers 7.12502
rthumb -14.637 -12.7109
lclavicle 1.49486e-013 4.92986e-014
lhumerus -5.21818 -36.8748 96.9796
lradius 64.155
lwrist -15.3051
lhand -37.2178 47.8779
lfingers 7.12502
lthumb -10.2848 -1362.39
rfemur -38.8788 15.2177 -21.9335
rtibia 34.9764
rfoot -18.7245 -14.1933
rtoes -24.0283
lfemur -42.2757 6.79337 -4.91808
ltibia 26.8294
lfoot 2.935 8.06085
ltoes -14.157
736
root 10.8902 17.0742 9.9872 -153.719 -20.2185 170.916
lowerback 27.0107 3.18069 3.62273
upperback 9.33676 3.47503 6.64216
thorax -4.6906 0.839474 4.2498
lowerneck -5.32498 -4.51481 -7.42958
upperneck -15.9759 -5.73376 10.4207
head -3.32485 -3.34718 4.51822
rclavicle 7.63333e-014 1.59028e-014
rhumerus 26.9736 24.1272 -62.0125
rradius 123.873
rwrist -50.8044
rhand -42.2114 17.2111
rfingers 7.12502
rthumb -15.0988 -12.2182
lclavicle 7.63333e-014 1.59028e-014
lhumerus -5.06214 -37.4108 95.8472
lradius 63.4615
lwrist -15.5376
lhand -37.1994 48.6067
lfingers 7.12502
lthumb -10.2671 -1361.66
rfemur -39.5385 14.5381 -21.2529
rtibia 36.9031
rfoot -19.2284 -13.7449
rtoes -24.7984
lfemur -41.1629 5.38256 -3.92879
ltibia 24.6366
lfoot 4.20188 9.30833
ltoes -12.7136
737
root 11.0691 17.0867 9.92928 -153.746 -20.7836 170.276
lowerback 27.025 3.01412 3.62948
upperback 9.3796 3.26503 6.41237
thorax -4.62496 0.750021 4.05255
lowerneck -5.71757 -4.54507 -7.72004
upperneck -15.8161 -5.72783 10.7279
head -3.19193 -3.33415 4.64469
rclavicle -1.20861e-013 -4.92986e-014
rhumerus 26.9832 24.3626 -62.0185
rradius 123.509
rwrist -50.9326
rhand -42.7328 17.7635
rfingers 7.12502
rthumb -15.601 -11.6273
lclavicle -1.20861e-013 -4.92986e-014
lhumerus -4.68009 -36.8161 95.0229
lradius 62.7663
lwrist -15.8571
lhand -37.4991 47.7518
lfingers 7.12502
lthumb -10.5561 -1362.53
rfemur -39.8978 13.559 -20.6263
rtibia 38.5573
rfoot -19.1119 -13.395
rtoes -25.2161
lfemur -39.9378 3.69727 -3.15315
ltibia 22.3669
lfoot 6.07196 10.7566
ltoes -11.524
738
root 11.2442 17.1131 9.86768 -153.938 -21.2705 169.796
lowerback 27.1383 2.83077 3.85337
upperback 9.48468 3.06659 6.0712
thorax -4.51824 0.664014 3.60346
lowerneck -6.11664 -4.53744 -7.63655
upperneck -15.6919 -5.70151 10.8438
head -3.09023 -3.32481 4.65167
rclavicle 6.36111e-014 4.13472e-014
rhumerus 26.8194 24.6166 -62.2142
rradius 123.382
rwrist -50.9929
rhand -43.2907 18.3262
rfingers 7.12502
rthumb -16.1383 -11.0219
lclavicle 6.36111e-014 4.13472e-014
lhumerus -4.22346 -36.1531 94.0395
lradius 62.1432
lwrist -16.2509
lhand -37.3638 47.168
lfingers 7.12502
lthumb -10.4256 -1363.11
rfemur -40.208 12.6638 -19.8116
rtibia 40.0757
rfoot -19.0377 -13.0646
rtoes -26.8186
lfemur -38.453 1.84254 -2.15625
ltibia 19.9957
lfoot 7.63032 12.9575
ltoes -7.65273
739
root 11.4171 17.1481 9.80156 -154.315 -21.8659 169.451
lowerback 27.3296 2.58332 4.20202
upperback 9.60275 2.80788 5.80987
thorax -4.43086 0.541492 3.1913
lowerneck -6.34328 -4.4907 -7.45616
upperneck -15.6285 -5.64774 10.7815
head -3.04796 -3.30229 4.59497
rclavicle 6.67916e-014 9.54166e-015
rhumerus 26.3677 25.2769 -62.3304
rradius 123.513
rwrist -50.9199
rhand -43.9407 19.0814
rfingers 7.12502
rthumb -16.7641 -10.2148
lclavicle 6.67916e-014 9.54166e-015
lhumerus -3.83117 -35.1124 93.2085
lradius 61.3081
lwrist -16.8473
lhand -37.6821 46.8938
lfingers 7.12502
lthumb -10.7326 -1363.4
rfemur -40.2013 12.055 -18.7769
rtibia 41.5179
rfoot -19.2878 -12.9006
rtoes -27.5692
lfemur -36.7668 -0.147996 -1.03156
ltibia 17.4602
lfoot 8.79482 15.7153
ltoes -3.445
740
root 11.6017 17.1785 9.72308 -154.845 -22.5505 169.019
lowerback 27.648 2.52713 4.24537
upperback 9.837 2.69461 5.738
thorax -4.30922 0.469477 3.12082
lowerneck -6.59996 -4.49169 -7.29382
upperneck -15.5838 -5.65319 10.7274
head -3.00031 -3.30757 4.54288
rclavicle -2.54444e-014 -3.02153e-014
rhumerus 25.8724 25.7835 -62.1599
rradius 123.486
rwrist -50.7756
rhand -44.5699 20.0994
rfingers 7.12502
rthumb -17.3697 -9.1445
lclavicle -2.54444e-014 -3.02153e-014
lhumerus -3.2163 -34.4044 92.625
lradius 60.0938
lwrist -18.4799
lhand -38.2869 47.4907
lfingers 7.12502
lthumb -11.316 -1362.83
rfemur -39.7849 11.6371 -17.71
rtibia 42.8651
rfoot -19.6738 -12.8978
rtoes -27.186
lfemur -34.9246 -1.77258 -0.28505
ltibia 14.8662
lfoot 10.1953 18.203
ltoes -0.232776
741
root 11.7911 17.2047 9.63377 -155.224 -22.9954 168.455
lowerback 28.0969 2.88879 4.4609
upperback 10.0212 3.20711 5.25658
thorax -4.28674 0.732829 2.3045
lowerneck -7.00712 -4.87604 -5.82405
upperneck -15.6476 -6.22334 10.5151
head -2.96111 -3.65385 4.21679
rclavicle -6.36111e-014 -7.63333e-014
rhumerus 24.6552 24.9711 -62.648
rradius 123.37
rwrist -50.3663
rhand -45.1909 21.1553
rfingers 7.12502
rthumb -17.9674 -8.03472
lclavicle -6.36111e-014 -7.63333e-014
lhumerus -2.24071 -35.2988 91.5864
lradius 58.9666
lwrist -19.2146
lhand -37.9017 46.6023
lfingers 7.12502
lthumb -10.9445 -1363.7
rfemur -39.5061 11.3549 -16.9702
rtibia 44.0873
rfoot -20.223 -12.761
rtoes -26.3246
lfemur -33.2166 -2.90837 0.0282774
ltibia 12.4854
lfoot 11.4326 20.7095
ltoes 4.10277
742
root 11.9523 17.2221 9.5681 -155.15 -23.4731 168.102
lowerback 28.0526 2.73914 4.96582
upperback 9.9544 3.17425 4.77803
thorax -4.27636 0.755886 1.49773
lowerneck -6.82639 -4.92259 -5.11031
upperneck -15.8572 -6.30704 10.5193
head -3.06935 -3.74157 4.11184
rclavicle -1.27222e-014 -4.77083e-015
rhumerus 23.8511 25.4935 -63.0946
rradius 123.495
rwrist -50.0449
rhand -45.9516 22.1045
rfingers 7.12502
rthumb -18.6992 -7.01674
lclavicle -1.27222e-014 -4.77083e-015
lhumerus -1.80529 -34.9235 90.7606
lradius 58.0864
lwrist -19.6612
lhand -36.4749 46.17
lfingers 7.12502
lthumb -9.56804 -1364.07
rfemur -39.7533 10.7992 -16.3708
rtibia 45.1191
rfoot -20.6848 -12.3999
rtoes -25.9759
lfemur -32.3583 -4.65102 0.920399
ltibia 10.4435
lfoot 11.1941 24.7953
ltoes 12.1538
